<svg width="1231" height="536" viewBox="0 0 1231 536" fill="none" xmlns="http://www.w3.org/2000/svg">
<g clip-path="url(#clip0_256_33)">
<path d="M75.16 419V325.432H130.2V335.928H86.424V367.032H126.872V377.528H86.68V419H75.16ZM178.022 420.28C169.915 420.28 163.43 417.891 158.566 413.112C153.702 408.248 151.27 401.677 151.27 393.4V348.6H162.79V393.4C162.79 398.691 164.155 402.829 166.886 405.816C169.617 408.717 173.329 410.168 178.022 410.168C182.801 410.168 186.555 408.717 189.286 405.816C192.102 402.829 193.51 398.691 193.51 393.4V348.6H205.03V393.4C205.03 401.677 202.555 408.248 197.606 413.112C192.657 417.891 186.129 420.28 178.022 420.28ZM224.948 419V348.6H235.06V357.048H237.364L235.572 360.12C235.572 356.195 236.596 353.08 238.644 350.776C240.777 348.472 243.636 347.32 247.22 347.32C251.145 347.32 254.175 348.771 256.308 351.672C258.441 354.573 259.508 358.669 259.508 363.96L256.052 357.048H261.428L258.996 360.12C258.996 356.195 260.063 353.08 262.196 350.776C264.415 348.472 267.316 347.32 270.9 347.32C275.337 347.32 278.751 348.984 281.14 352.312C283.615 355.64 284.852 360.035 284.852 365.496V419H274.228V365.368C274.228 362.467 273.588 360.205 272.308 358.584C271.113 356.963 269.321 356.152 266.932 356.152C264.628 356.152 262.793 356.963 261.428 358.584C260.148 360.12 259.508 362.339 259.508 365.24V419H250.292V365.368C250.292 362.381 249.609 360.12 248.244 358.584C246.964 356.963 245.129 356.152 242.74 356.152C240.351 356.152 238.559 356.963 237.364 358.584C236.169 360.12 235.572 362.339 235.572 365.24V419H224.948ZM325.506 420.28C318.082 420.28 312.237 418.403 307.97 414.648C303.703 410.808 301.57 405.645 301.57 399.16C301.57 392.589 303.703 387.427 307.97 383.672C312.237 379.917 317.997 378.04 325.25 378.04H347.01V371C347.01 366.648 345.687 363.32 343.042 361.016C340.482 358.627 336.813 357.432 332.034 357.432C327.853 357.432 324.354 358.328 321.538 360.12C318.722 361.827 317.101 364.173 316.674 367.16H305.154C305.922 361.101 308.781 356.28 313.73 352.696C318.679 349.112 324.866 347.32 332.29 347.32C340.397 347.32 346.797 349.411 351.49 353.592C356.183 357.773 358.53 363.448 358.53 370.616V419H347.266V405.56H345.346L347.266 403.64C347.266 408.76 345.261 412.813 341.25 415.8C337.325 418.787 332.077 420.28 325.506 420.28ZM328.322 411.192C333.783 411.192 338.263 409.827 341.762 407.096C345.261 404.365 347.01 400.867 347.01 396.6V386.616H325.506C321.666 386.616 318.637 387.683 316.418 389.816C314.199 391.949 313.09 394.851 313.09 398.52C313.09 402.445 314.413 405.56 317.058 407.864C319.789 410.083 323.543 411.192 328.322 411.192ZM404.304 420.28C397.307 420.28 391.632 417.933 387.28 413.24C383.013 408.547 380.88 402.189 380.88 394.168V373.56C380.88 365.453 383.013 359.053 387.28 354.36C391.547 349.667 397.221 347.32 404.304 347.32C410.107 347.32 414.757 348.899 418.256 352.056C421.755 355.213 423.504 359.437 423.504 364.728L421.2 362.04H423.76L423.504 346.04V325.56H435.024V419H423.504V405.56H421.2L423.504 402.872C423.504 408.248 421.755 412.515 418.256 415.672C414.757 418.744 410.107 420.28 404.304 420.28ZM408.144 410.296C412.923 410.296 416.677 408.803 419.408 405.816C422.139 402.829 423.504 398.691 423.504 393.4V374.2C423.504 368.909 422.139 364.771 419.408 361.784C416.677 358.797 412.923 357.304 408.144 357.304C403.28 357.304 399.44 358.755 396.624 361.656C393.808 364.557 392.4 368.739 392.4 374.2V393.4C392.4 398.861 393.808 403.043 396.624 405.944C399.44 408.845 403.28 410.296 408.144 410.296ZM485.15 420.024C479.518 420.024 474.654 418.957 470.558 416.824C466.462 414.691 463.262 411.619 460.958 407.608C458.739 403.512 457.63 398.691 457.63 393.144V374.456C457.63 368.824 458.739 364.003 460.958 359.992C463.262 355.981 466.462 352.909 470.558 350.776C474.654 348.643 479.518 347.576 485.15 347.576C490.782 347.576 495.646 348.643 499.742 350.776C503.838 352.909 506.995 355.981 509.214 359.992C511.518 364.003 512.67 368.781 512.67 374.328V393.144C512.67 398.691 511.518 403.512 509.214 407.608C506.995 411.619 503.838 414.691 499.742 416.824C495.646 418.957 490.782 420.024 485.15 420.024ZM485.15 409.784C490.185 409.784 494.11 408.376 496.926 405.56C499.742 402.744 501.15 398.605 501.15 393.144V374.456C501.15 368.995 499.742 364.856 496.926 362.04C494.11 359.224 490.185 357.816 485.15 357.816C480.201 357.816 476.275 359.224 473.374 362.04C470.558 364.856 469.15 368.995 469.15 374.456V393.144C469.15 398.605 470.558 402.744 473.374 405.56C476.275 408.376 480.201 409.784 485.15 409.784ZM562.412 420.28C556.78 420.28 551.831 419.213 547.564 417.08C543.383 414.947 540.14 411.875 537.836 407.864C535.532 403.768 534.38 398.947 534.38 393.4V374.2C534.38 368.568 535.532 363.747 537.836 359.736C540.14 355.725 543.383 352.653 547.564 350.52C551.831 348.387 556.78 347.32 562.412 347.32C570.519 347.32 577.047 349.496 581.996 353.848C586.945 358.2 589.548 364.131 589.804 371.64H578.284C578.028 367.117 576.492 363.661 573.676 361.272C570.945 358.797 567.191 357.56 562.412 357.56C557.377 357.56 553.367 359.011 550.38 361.912C547.393 364.728 545.9 368.781 545.9 374.072V393.4C545.9 398.691 547.393 402.787 550.38 405.688C553.367 408.589 557.377 410.04 562.412 410.04C567.191 410.04 570.945 408.803 573.676 406.328C576.492 403.853 578.028 400.397 578.284 395.96H589.804C589.548 403.469 586.945 409.4 581.996 413.752C577.047 418.104 570.519 420.28 562.412 420.28ZM636.474 420.024C631.695 420.024 627.514 419.299 623.93 417.848C620.431 416.312 617.615 414.179 615.482 411.448C613.434 408.717 612.197 405.475 611.77 401.72H623.29C623.802 404.195 625.167 406.157 627.386 407.608C629.69 409.059 632.719 409.784 636.474 409.784H641.85C646.373 409.784 649.743 408.888 651.962 407.096C654.181 405.219 655.29 402.744 655.29 399.672C655.29 396.685 654.266 394.339 652.218 392.632C650.255 390.84 647.311 389.645 643.386 389.048L633.914 387.512C627.002 386.317 621.839 384.184 618.426 381.112C615.098 377.955 613.434 373.389 613.434 367.416C613.434 361.101 615.439 356.237 619.45 352.824C623.461 349.325 629.477 347.576 637.498 347.576H642.362C649.103 347.576 654.522 349.155 658.618 352.312C662.714 355.469 665.189 359.736 666.042 365.112H654.522C654.01 362.893 652.73 361.144 650.682 359.864C648.634 358.499 645.861 357.816 642.362 357.816H637.498C633.146 357.816 629.946 358.627 627.898 360.248C625.935 361.869 624.954 364.301 624.954 367.544C624.954 370.445 625.807 372.579 627.514 373.944C629.221 375.309 631.909 376.291 635.578 376.888L645.05 378.424C652.645 379.619 658.149 381.837 661.562 385.08C665.061 388.323 666.81 393.016 666.81 399.16C666.81 405.645 664.719 410.765 660.538 414.52C656.442 418.189 650.213 420.024 641.85 420.024H636.474Z" fill="#35548E" fill-opacity="0.3"/>
<path d="M306 0V181" stroke="#32323C" stroke-width="2" stroke-linecap="square"/>
<path d="M360 181H252C248.686 181 246 183.686 246 187V260C246 263.314 248.686 266 252 266H360C363.314 266 366 263.314 366 260V187C366 183.686 363.314 181 360 181Z" fill="url(#paint0_linear_256_33)" stroke="#3F4C59" stroke-width="0.5"/>
<path d="M606 203.25H374V205.25H606V203.25Z" fill="url(#paint1_linear_256_33)"/>
<path d="M374 202H366V207H374V202Z" fill="#646478"/>
<path d="M606 223.25H374V225.25H606V223.25Z" fill="url(#paint2_linear_256_33)"/>
<path d="M374 222H366V227H374V222Z" fill="#646478"/>
<path d="M606 243.25H374V245.25H606V243.25Z" fill="url(#paint3_linear_256_33)"/>
<path d="M374 242H366V247H374V242Z" fill="#646478"/>
<g filter="url(#filter0_d_256_33)">
<path d="M354 200C356.209 200 358 198.209 358 196C358 193.791 356.209 192 354 192C351.791 192 350 193.791 350 196C350 198.209 351.791 200 354 200Z" fill="#FF8CFF"/>
</g>
<path d="M260.869 218.315V216.909H270.688V218.315H266.571V230H264.986V218.315H260.869ZM272.776 233.682C272.52 233.682 272.292 233.661 272.092 233.618C271.892 233.58 271.753 233.541 271.677 233.503L272.06 232.173C272.427 232.267 272.751 232.301 273.032 232.276C273.313 232.25 273.562 232.124 273.78 231.898C274.001 231.677 274.204 231.317 274.387 230.818L274.668 230.051L271.037 220.182H272.674L275.384 228.006H275.486L278.197 220.182H279.833L275.665 231.432C275.478 231.939 275.246 232.359 274.969 232.691C274.692 233.028 274.37 233.277 274.003 233.439C273.641 233.601 273.232 233.682 272.776 233.682ZM281.824 233.682V220.182H283.281V221.741H283.46C283.571 221.571 283.725 221.354 283.921 221.089C284.121 220.821 284.406 220.582 284.777 220.374C285.152 220.161 285.659 220.054 286.298 220.054C287.125 220.054 287.854 220.261 288.485 220.674C289.115 221.087 289.607 221.673 289.961 222.432C290.315 223.19 290.492 224.085 290.492 225.116C290.492 226.156 290.315 227.058 289.961 227.82C289.607 228.579 289.117 229.167 288.491 229.585C287.865 229.998 287.142 230.205 286.324 230.205C285.693 230.205 285.188 230.1 284.809 229.891C284.43 229.678 284.138 229.437 283.933 229.169C283.729 228.896 283.571 228.67 283.46 228.491H283.333V233.682H281.824ZM283.307 225.091C283.307 225.832 283.416 226.487 283.633 227.053C283.85 227.616 284.168 228.057 284.585 228.376C285.003 228.692 285.514 228.849 286.119 228.849C286.75 228.849 287.276 228.683 287.698 228.351C288.124 228.014 288.444 227.562 288.657 226.996C288.874 226.425 288.983 225.79 288.983 225.091C288.983 224.401 288.877 223.778 288.664 223.224C288.455 222.666 288.137 222.225 287.711 221.901C287.289 221.573 286.759 221.409 286.119 221.409C285.506 221.409 284.99 221.565 284.573 221.876C284.155 222.183 283.84 222.613 283.627 223.167C283.414 223.717 283.307 224.358 283.307 225.091ZM296.909 230.205C295.963 230.205 295.147 229.996 294.461 229.578C293.779 229.156 293.253 228.568 292.882 227.814C292.516 227.055 292.333 226.173 292.333 225.168C292.333 224.162 292.516 223.276 292.882 222.509C293.253 221.737 293.769 221.136 294.429 220.706C295.094 220.271 295.869 220.054 296.756 220.054C297.267 220.054 297.772 220.139 298.271 220.31C298.769 220.48 299.223 220.757 299.632 221.141C300.041 221.52 300.367 222.023 300.61 222.649C300.853 223.276 300.975 224.047 300.975 224.963V225.602H293.406V224.298H299.441C299.441 223.744 299.33 223.25 299.108 222.815C298.891 222.381 298.58 222.038 298.175 221.786C297.774 221.535 297.301 221.409 296.756 221.409C296.155 221.409 295.635 221.558 295.196 221.857C294.762 222.151 294.427 222.534 294.193 223.007C293.958 223.48 293.841 223.987 293.841 224.528V225.398C293.841 226.139 293.969 226.768 294.225 227.283C294.485 227.795 294.845 228.185 295.305 228.453C295.765 228.717 296.3 228.849 296.909 228.849C297.306 228.849 297.664 228.794 297.983 228.683C298.307 228.568 298.586 228.398 298.82 228.172C299.055 227.942 299.236 227.656 299.364 227.315L300.821 227.724C300.668 228.219 300.41 228.653 300.048 229.028C299.686 229.399 299.238 229.689 298.705 229.898C298.173 230.102 297.574 230.205 296.909 230.205ZM310.633 220.182C310.556 219.534 310.245 219.031 309.7 218.673C309.154 218.315 308.485 218.136 307.693 218.136C307.113 218.136 306.606 218.23 306.171 218.418C305.741 218.605 305.404 218.863 305.161 219.191C304.923 219.519 304.803 219.892 304.803 220.31C304.803 220.659 304.887 220.96 305.053 221.211C305.223 221.458 305.441 221.665 305.705 221.831C305.969 221.993 306.246 222.127 306.536 222.234C306.825 222.336 307.092 222.419 307.335 222.483L308.664 222.841C309.005 222.93 309.384 223.054 309.802 223.212C310.224 223.369 310.627 223.585 311.01 223.857C311.398 224.126 311.718 224.471 311.969 224.893C312.22 225.315 312.346 225.832 312.346 226.446C312.346 227.153 312.161 227.793 311.79 228.364C311.423 228.935 310.887 229.388 310.179 229.725C309.476 230.062 308.622 230.23 307.616 230.23C306.678 230.23 305.867 230.079 305.181 229.776C304.499 229.474 303.962 229.052 303.57 228.511C303.182 227.969 302.963 227.341 302.911 226.625H304.548C304.59 227.119 304.757 227.528 305.046 227.852C305.34 228.172 305.711 228.411 306.159 228.568C306.61 228.722 307.096 228.798 307.616 228.798C308.221 228.798 308.764 228.7 309.246 228.504C309.727 228.304 310.109 228.027 310.39 227.673C310.671 227.315 310.812 226.898 310.812 226.42C310.812 225.986 310.691 225.632 310.448 225.359C310.205 225.087 309.885 224.865 309.489 224.695C309.093 224.524 308.664 224.375 308.204 224.247L306.593 223.787C305.57 223.493 304.761 223.073 304.164 222.528C303.568 221.982 303.269 221.268 303.269 220.386C303.269 219.653 303.468 219.014 303.864 218.469C304.264 217.919 304.801 217.493 305.475 217.19C306.152 216.884 306.909 216.73 307.744 216.73C308.588 216.73 309.338 216.881 309.994 217.184C310.65 217.482 311.17 217.891 311.553 218.411C311.941 218.931 312.146 219.521 312.167 220.182H310.633ZM318.737 230.205C317.816 230.205 317.023 229.987 316.359 229.553C315.694 229.118 315.183 228.519 314.825 227.756C314.467 226.994 314.288 226.122 314.288 225.142C314.288 224.145 314.471 223.265 314.837 222.502C315.208 221.735 315.724 221.136 316.384 220.706C317.049 220.271 317.825 220.054 318.711 220.054C319.401 220.054 320.023 220.182 320.577 220.438C321.131 220.693 321.585 221.051 321.939 221.511C322.293 221.972 322.512 222.509 322.597 223.122H321.089C320.974 222.675 320.718 222.278 320.322 221.933C319.93 221.584 319.401 221.409 318.737 221.409C318.148 221.409 317.633 221.562 317.19 221.869C316.751 222.172 316.408 222.6 316.161 223.154C315.918 223.704 315.796 224.349 315.796 225.091C315.796 225.849 315.915 226.51 316.154 227.072C316.397 227.635 316.738 228.072 317.177 228.383C317.62 228.694 318.14 228.849 318.737 228.849C319.129 228.849 319.484 228.781 319.804 228.645C320.124 228.509 320.394 228.312 320.616 228.057C320.837 227.801 320.995 227.494 321.089 227.136H322.597C322.512 227.716 322.301 228.238 321.964 228.702C321.632 229.163 321.191 229.529 320.641 229.802C320.096 230.07 319.461 230.205 318.737 230.205ZM324.803 230V220.182H326.26V221.665H326.362C326.541 221.179 326.865 220.785 327.334 220.482C327.803 220.18 328.331 220.028 328.919 220.028C329.03 220.028 329.168 220.031 329.335 220.035C329.501 220.039 329.626 220.045 329.712 220.054V221.588C329.661 221.575 329.543 221.556 329.36 221.531C329.181 221.501 328.991 221.486 328.791 221.486C328.314 221.486 327.888 221.586 327.513 221.786C327.142 221.982 326.848 222.255 326.631 222.604C326.418 222.95 326.311 223.344 326.311 223.787V230H324.803ZM331.5 230V220.182H333.008V230H331.5ZM332.267 218.545C331.973 218.545 331.719 218.445 331.506 218.245C331.297 218.045 331.193 217.804 331.193 217.523C331.193 217.241 331.297 217.001 331.506 216.8C331.719 216.6 331.973 216.5 332.267 216.5C332.561 216.5 332.812 216.6 333.021 216.8C333.234 217.001 333.341 217.241 333.341 217.523C333.341 217.804 333.234 218.045 333.021 218.245C332.812 218.445 332.561 218.545 332.267 218.545ZM335.771 233.682V220.182H337.229V221.741H337.408C337.518 221.571 337.672 221.354 337.868 221.089C338.068 220.821 338.354 220.582 338.724 220.374C339.099 220.161 339.607 220.054 340.246 220.054C341.072 220.054 341.801 220.261 342.432 220.674C343.063 221.087 343.555 221.673 343.908 222.432C344.262 223.19 344.439 224.085 344.439 225.116C344.439 226.156 344.262 227.058 343.908 227.82C343.555 228.579 343.065 229.167 342.438 229.585C341.812 229.998 341.089 230.205 340.271 230.205C339.641 230.205 339.136 230.1 338.756 229.891C338.377 229.678 338.085 229.437 337.881 229.169C337.676 228.896 337.518 228.67 337.408 228.491H337.28V233.682H335.771ZM337.254 225.091C337.254 225.832 337.363 226.487 337.58 227.053C337.798 227.616 338.115 228.057 338.533 228.376C338.95 228.692 339.462 228.849 340.067 228.849C340.697 228.849 341.224 228.683 341.646 228.351C342.072 228.014 342.391 227.562 342.604 226.996C342.822 226.425 342.93 225.79 342.93 225.091C342.93 224.401 342.824 223.778 342.611 223.224C342.402 222.666 342.085 222.225 341.658 221.901C341.237 221.573 340.706 221.409 340.067 221.409C339.453 221.409 338.938 221.565 338.52 221.876C338.102 222.183 337.787 222.613 337.574 223.167C337.361 223.717 337.254 224.358 337.254 225.091ZM351.01 220.182V221.46H345.922V220.182H351.01ZM347.405 217.83H348.913V227.188C348.913 227.614 348.975 227.933 349.099 228.146C349.227 228.355 349.388 228.496 349.585 228.568C349.785 228.636 349.996 228.67 350.217 228.67C350.384 228.67 350.52 228.662 350.626 228.645C350.733 228.624 350.818 228.607 350.882 228.594L351.189 229.949C351.087 229.987 350.944 230.026 350.761 230.064C350.577 230.107 350.345 230.128 350.064 230.128C349.638 230.128 349.22 230.036 348.811 229.853C348.406 229.67 348.07 229.391 347.801 229.016C347.537 228.641 347.405 228.168 347.405 227.597V217.83Z" fill="#6E6E86" fill-opacity="0.9"/>
<g clip-path="url(#clip1_256_33)">
<rect x="616" y="242" width="171" height="115" rx="8" fill="url(#paint4_linear_256_33)"/>
<g filter="url(#filter1_d_256_33)">
<path d="M769 264C771.761 264 774 261.761 774 259C774 256.239 771.761 254 769 254C766.239 254 764 256.239 764 259C764 261.761 766.239 264 769 264Z" fill="#FF8964"/>
</g>
<path d="M670.1 264.2C666.254 264.2 662.566 265.728 659.847 268.447C657.128 271.166 655.6 274.854 655.6 278.7V319.3C655.6 323.146 657.128 326.834 659.847 329.553C662.566 332.272 666.254 333.8 670.1 333.8H733.9C737.746 333.8 741.434 332.272 744.153 329.553C746.872 326.834 748.4 323.146 748.4 319.3V278.7C748.4 274.854 746.872 271.166 744.153 268.447C741.434 265.728 737.746 264.2 733.9 264.2H670.1ZM661.4 278.7C661.4 276.393 662.317 274.18 663.948 272.548C665.58 270.917 667.793 270 670.1 270H733.9C736.207 270 738.42 270.917 740.052 272.548C741.683 274.18 742.6 276.393 742.6 278.7V319.3C742.6 321.607 741.683 323.82 740.052 325.452C738.42 327.083 736.207 328 733.9 328H670.1C667.793 328 665.58 327.083 663.948 325.452C662.317 323.82 661.4 321.607 661.4 319.3V278.7ZM670.1 275.8C669.331 275.8 668.593 276.106 668.049 276.649C667.506 277.193 667.2 277.931 667.2 278.7C667.2 279.469 667.506 280.207 668.049 280.751C668.593 281.294 669.331 281.6 670.1 281.6H699.1C699.869 281.6 700.607 281.294 701.151 280.751C701.695 280.207 702 279.469 702 278.7C702 277.931 701.695 277.193 701.151 276.649C700.607 276.106 699.869 275.8 699.1 275.8H670.1ZM670.1 287.4C669.331 287.4 668.593 287.706 668.049 288.249C667.506 288.793 667.2 289.531 667.2 290.3C667.2 291.069 667.506 291.807 668.049 292.351C668.593 292.894 669.331 293.2 670.1 293.2H716.5C717.269 293.2 718.007 292.894 718.551 292.351C719.095 291.807 719.4 291.069 719.4 290.3C719.4 289.531 719.095 288.793 718.551 288.249C718.007 287.706 717.269 287.4 716.5 287.4H670.1ZM673 304.8C671.462 304.8 669.987 305.411 668.899 306.499C667.811 307.586 667.2 309.062 667.2 310.6V316.4C667.2 317.938 667.811 319.413 668.899 320.501C669.987 321.589 671.462 322.2 673 322.2H696.2C697.738 322.2 699.214 321.589 700.301 320.501C701.389 319.413 702 317.938 702 316.4V310.6C702 309.062 701.389 307.586 700.301 306.499C699.214 305.411 697.738 304.8 696.2 304.8H673Z" fill="#67677D" fill-opacity="0.5"/>
</g>
<rect x="616.5" y="242.5" width="170" height="114" rx="7.5" stroke="#3F4C59"/>
<rect x="667.5" y="66.5" width="186" height="134" rx="17.5" fill="url(#paint5_linear_256_33)"/>
<rect x="667.5" y="66.5" width="186" height="134" rx="17.5" stroke="#3D3C47"/>
<g filter="url(#filter2_d_256_33)">
<path d="M833 94C835.209 94 837 92.2091 837 90C837 87.7909 835.209 86 833 86C830.791 86 829 87.7909 829 90C829 92.2091 830.791 94 833 94Z" fill="#8CFFA5"/>
</g>
<path d="M727.982 118.273C727.982 120.114 727.649 121.705 726.984 123.045C726.32 124.386 725.408 125.42 724.249 126.148C723.089 126.875 721.766 127.239 720.277 127.239C718.788 127.239 717.464 126.875 716.305 126.148C715.146 125.42 714.234 124.386 713.57 123.045C712.905 121.705 712.572 120.114 712.572 118.273C712.572 116.432 712.905 114.841 713.57 113.5C714.234 112.159 715.146 111.125 716.305 110.398C717.464 109.67 718.788 109.307 720.277 109.307C721.766 109.307 723.089 109.67 724.249 110.398C725.408 111.125 726.32 112.159 726.984 113.5C727.649 114.841 727.982 116.432 727.982 118.273ZM725.936 118.273C725.936 116.761 725.683 115.486 725.178 114.446C724.678 113.406 723.999 112.619 723.141 112.085C722.288 111.551 721.334 111.284 720.277 111.284C719.22 111.284 718.263 111.551 717.405 112.085C716.553 112.619 715.874 113.406 715.368 114.446C714.868 115.486 714.618 116.761 714.618 118.273C714.618 119.784 714.868 121.06 715.368 122.099C715.874 123.139 716.553 123.926 717.405 124.46C718.263 124.994 719.22 125.261 720.277 125.261C721.334 125.261 722.288 124.994 723.141 124.46C723.999 123.926 724.678 123.139 725.178 122.099C725.683 121.06 725.936 119.784 725.936 118.273ZM731.263 131.909V113.909H733.206V115.989H733.445C733.592 115.761 733.797 115.472 734.058 115.119C734.325 114.761 734.706 114.443 735.2 114.165C735.7 113.881 736.376 113.739 737.229 113.739C738.331 113.739 739.303 114.014 740.143 114.565C740.984 115.116 741.641 115.898 742.112 116.909C742.584 117.92 742.82 119.114 742.82 120.489C742.82 121.875 742.584 123.077 742.112 124.094C741.641 125.105 740.987 125.889 740.152 126.446C739.317 126.997 738.354 127.273 737.263 127.273C736.422 127.273 735.749 127.134 735.243 126.855C734.737 126.571 734.348 126.25 734.075 125.892C733.803 125.528 733.592 125.227 733.445 124.989H733.274V131.909H731.263ZM733.24 120.455C733.24 121.443 733.385 122.315 733.675 123.071C733.964 123.821 734.388 124.409 734.945 124.835C735.501 125.256 736.183 125.466 736.99 125.466C737.831 125.466 738.533 125.244 739.095 124.801C739.663 124.352 740.089 123.75 740.374 122.994C740.663 122.233 740.808 121.386 740.808 120.455C740.808 119.534 740.666 118.705 740.382 117.966C740.104 117.222 739.68 116.634 739.112 116.202C738.55 115.764 737.842 115.545 736.99 115.545C736.172 115.545 735.484 115.753 734.928 116.168C734.371 116.577 733.95 117.151 733.666 117.889C733.382 118.622 733.24 119.477 733.24 120.455ZM751.376 127.273C750.115 127.273 749.027 126.994 748.112 126.438C747.203 125.875 746.501 125.091 746.007 124.085C745.518 123.074 745.274 121.898 745.274 120.557C745.274 119.216 745.518 118.034 746.007 117.011C746.501 115.983 747.189 115.182 748.07 114.608C748.956 114.028 749.99 113.739 751.172 113.739C751.854 113.739 752.527 113.852 753.192 114.08C753.857 114.307 754.462 114.676 755.007 115.188C755.553 115.693 755.987 116.364 756.311 117.199C756.635 118.034 756.797 119.062 756.797 120.284V121.136H746.706V119.398H754.751C754.751 118.659 754.604 118 754.308 117.42C754.018 116.841 753.604 116.384 753.064 116.048C752.53 115.713 751.899 115.545 751.172 115.545C750.371 115.545 749.678 115.744 749.092 116.142C748.513 116.534 748.067 117.045 747.754 117.676C747.442 118.307 747.286 118.983 747.286 119.705V120.864C747.286 121.852 747.456 122.69 747.797 123.378C748.143 124.06 748.624 124.58 749.237 124.938C749.851 125.29 750.564 125.466 751.376 125.466C751.905 125.466 752.382 125.392 752.808 125.244C753.24 125.091 753.612 124.864 753.925 124.562C754.237 124.256 754.479 123.875 754.649 123.42L756.592 123.966C756.388 124.625 756.044 125.205 755.561 125.705C755.078 126.199 754.482 126.585 753.771 126.864C753.061 127.136 752.263 127.273 751.376 127.273ZM761.868 119.125V127H759.857V113.909H761.8V115.955H761.97C762.277 115.29 762.743 114.756 763.368 114.352C763.993 113.943 764.8 113.739 765.788 113.739C766.675 113.739 767.45 113.92 768.115 114.284C768.78 114.642 769.297 115.188 769.666 115.92C770.036 116.648 770.22 117.568 770.22 118.682V127H768.209V118.818C768.209 117.79 767.942 116.989 767.408 116.415C766.874 115.835 766.141 115.545 765.209 115.545C764.567 115.545 763.993 115.685 763.487 115.963C762.987 116.241 762.592 116.648 762.303 117.182C762.013 117.716 761.868 118.364 761.868 119.125ZM774.884 127H772.668L779.077 109.545H781.259L787.668 127H785.452L780.237 112.307H780.1L774.884 127ZM775.702 120.182H784.634V122.057H775.702V120.182ZM790.387 127V109.545H796.285C797.654 109.545 798.773 109.793 799.643 110.287C800.518 110.776 801.165 111.438 801.586 112.273C802.006 113.108 802.217 114.04 802.217 115.068C802.217 116.097 802.006 117.031 801.586 117.872C801.171 118.713 800.529 119.384 799.66 119.884C798.79 120.378 797.677 120.625 796.319 120.625H792.092V118.75H796.251C797.188 118.75 797.941 118.588 798.509 118.264C799.077 117.94 799.489 117.503 799.745 116.952C800.006 116.395 800.137 115.767 800.137 115.068C800.137 114.369 800.006 113.744 799.745 113.193C799.489 112.642 799.075 112.21 798.501 111.898C797.927 111.58 797.165 111.42 796.217 111.42H792.501V127H790.387ZM807.735 109.545V127H805.621V109.545H807.735ZM720.52 138.545H723.043L728.974 153.034H729.179L735.111 138.545H737.634V156H735.656V142.739H735.486L730.031 156H728.122L722.668 142.739H722.497V156H720.52V138.545ZM746.917 156.273C745.735 156.273 744.698 155.991 743.806 155.429C742.92 154.866 742.227 154.08 741.727 153.068C741.232 152.057 740.985 150.875 740.985 149.523C740.985 148.159 741.232 146.969 741.727 145.952C742.227 144.935 742.92 144.145 743.806 143.582C744.698 143.02 745.735 142.739 746.917 142.739C748.099 142.739 749.133 143.02 750.019 143.582C750.911 144.145 751.604 144.935 752.099 145.952C752.599 146.969 752.849 148.159 752.849 149.523C752.849 150.875 752.599 152.057 752.099 153.068C751.604 154.08 750.911 154.866 750.019 155.429C749.133 155.991 748.099 156.273 746.917 156.273ZM746.917 154.466C747.815 154.466 748.553 154.236 749.133 153.776C749.712 153.315 750.141 152.71 750.42 151.96C750.698 151.21 750.837 150.398 750.837 149.523C750.837 148.648 750.698 147.832 750.42 147.077C750.141 146.321 749.712 145.71 749.133 145.244C748.553 144.778 747.815 144.545 746.917 144.545C746.019 144.545 745.281 144.778 744.701 145.244C744.121 145.71 743.692 146.321 743.414 147.077C743.136 147.832 742.996 148.648 742.996 149.523C742.996 150.398 743.136 151.21 743.414 151.96C743.692 152.71 744.121 153.315 744.701 153.776C745.281 154.236 746.019 154.466 746.917 154.466ZM760.862 156.273C759.771 156.273 758.808 155.997 757.973 155.446C757.138 154.889 756.484 154.105 756.013 153.094C755.541 152.077 755.305 150.875 755.305 149.489C755.305 148.114 755.541 146.92 756.013 145.909C756.484 144.898 757.141 144.116 757.982 143.565C758.822 143.014 759.794 142.739 760.896 142.739C761.749 142.739 762.422 142.881 762.916 143.165C763.416 143.443 763.797 143.761 764.058 144.119C764.325 144.472 764.533 144.761 764.68 144.989H764.851V138.545H766.862V156H764.919V153.989H764.68C764.533 154.227 764.322 154.528 764.05 154.892C763.777 155.25 763.388 155.571 762.882 155.855C762.376 156.134 761.703 156.273 760.862 156.273ZM761.135 154.466C761.942 154.466 762.624 154.256 763.18 153.835C763.737 153.409 764.161 152.821 764.45 152.071C764.74 151.315 764.885 150.443 764.885 149.455C764.885 148.477 764.743 147.622 764.459 146.889C764.175 146.151 763.754 145.577 763.197 145.168C762.641 144.753 761.953 144.545 761.135 144.545C760.283 144.545 759.572 144.764 759.004 145.202C758.442 145.634 758.018 146.222 757.734 146.966C757.456 147.705 757.317 148.534 757.317 149.455C757.317 150.386 757.459 151.233 757.743 151.994C758.033 152.75 758.459 153.352 759.021 153.801C759.589 154.244 760.294 154.466 761.135 154.466ZM779.075 150.648V142.909H781.087V156H779.075V153.784H778.939C778.632 154.449 778.155 155.014 777.507 155.48C776.859 155.94 776.041 156.17 775.053 156.17C774.234 156.17 773.507 155.991 772.871 155.634C772.234 155.27 771.734 154.724 771.371 153.997C771.007 153.264 770.825 152.341 770.825 151.227V142.909H772.837V151.091C772.837 152.045 773.104 152.807 773.638 153.375C774.178 153.943 774.865 154.227 775.7 154.227C776.2 154.227 776.709 154.099 777.226 153.844C777.749 153.588 778.186 153.196 778.538 152.668C778.896 152.139 779.075 151.466 779.075 150.648ZM786.782 138.545V156H784.771V138.545H786.782ZM795.955 156.273C794.693 156.273 793.605 155.994 792.69 155.438C791.781 154.875 791.08 154.091 790.585 153.085C790.097 152.074 789.852 150.898 789.852 149.557C789.852 148.216 790.097 147.034 790.585 146.011C791.08 144.983 791.767 144.182 792.648 143.608C793.534 143.028 794.568 142.739 795.75 142.739C796.432 142.739 797.105 142.852 797.77 143.08C798.435 143.307 799.04 143.676 799.585 144.188C800.131 144.693 800.565 145.364 800.889 146.199C801.213 147.034 801.375 148.062 801.375 149.284V150.136H791.284V148.398H799.33C799.33 147.659 799.182 147 798.886 146.42C798.597 145.841 798.182 145.384 797.642 145.048C797.108 144.713 796.477 144.545 795.75 144.545C794.949 144.545 794.256 144.744 793.67 145.142C793.091 145.534 792.645 146.045 792.332 146.676C792.02 147.307 791.864 147.983 791.864 148.705V149.864C791.864 150.852 792.034 151.69 792.375 152.378C792.722 153.06 793.202 153.58 793.815 153.938C794.429 154.29 795.142 154.466 795.955 154.466C796.483 154.466 796.96 154.392 797.386 154.244C797.818 154.091 798.19 153.864 798.503 153.562C798.815 153.256 799.057 152.875 799.227 152.42L801.17 152.966C800.966 153.625 800.622 154.205 800.139 154.705C799.656 155.199 799.06 155.585 798.349 155.864C797.639 156.136 796.841 156.273 795.955 156.273Z" fill="#6A6A7B" fill-opacity="0.8"/>
<rect x="854" y="106" width="17" height="6" fill="#646478"/>
<path d="M1229 106H871V128H1229V106Z" fill="url(#paint6_linear_256_33)"/>
<path d="M1229 138H871V160H1229V138Z" fill="url(#paint7_linear_256_33)"/>
<rect x="854" y="122" width="17" height="6" fill="#646478"/>
<rect x="854" y="138" width="17" height="6" fill="#646478"/>
<rect x="854" y="154" width="17" height="6" fill="#646478"/>
<rect x="170" y="478" width="74" height="54" rx="7" transform="rotate(-90 170 478)" fill="url(#paint8_linear_256_33)"/>
<rect x="274" y="478" width="74" height="54" rx="7" transform="rotate(-90 274 478)" fill="url(#paint9_linear_256_33)"/>
<rect x="379" y="478" width="74" height="54" rx="7" transform="rotate(-90 379 478)" fill="url(#paint10_linear_256_33)"/>
<rect x="483" y="478" width="74" height="54" rx="7" transform="rotate(-90 483 478)" fill="url(#paint11_linear_256_33)"/>
<rect x="418.5" y="51.5" width="220" height="172" rx="7.5" fill="url(#paint12_linear_256_33)"/>
<rect x="418.5" y="51.5" width="220" height="172" rx="7.5" stroke="#3F4C59"/>
<path d="M469.267 133V115.545H480.824V118.588H472.957V122.747H480.057V125.79H472.957V133H469.267ZM490.812 127.426V119.909H494.443V133H490.957V130.622H490.821C490.526 131.389 490.034 132.006 489.347 132.472C488.665 132.937 487.832 133.17 486.849 133.17C485.974 133.17 485.205 132.972 484.54 132.574C483.875 132.176 483.355 131.611 482.98 130.878C482.611 130.145 482.423 129.267 482.418 128.244V119.909H486.048V127.597C486.054 128.369 486.261 128.98 486.67 129.429C487.08 129.878 487.628 130.102 488.315 130.102C488.753 130.102 489.162 130.003 489.543 129.804C489.923 129.599 490.23 129.298 490.463 128.901C490.702 128.503 490.818 128.011 490.812 127.426ZM497.347 133V119.909H500.808V122.219H500.961C501.234 121.452 501.688 120.847 502.325 120.403C502.961 119.96 503.722 119.739 504.609 119.739C505.506 119.739 506.271 119.963 506.901 120.412C507.532 120.855 507.952 121.457 508.163 122.219H508.299C508.566 121.469 509.049 120.869 509.748 120.42C510.452 119.966 511.285 119.739 512.245 119.739C513.467 119.739 514.458 120.128 515.219 120.906C515.987 121.679 516.37 122.776 516.37 124.196V133H512.748V124.912C512.748 124.185 512.555 123.639 512.168 123.276C511.782 122.912 511.299 122.73 510.719 122.73C510.06 122.73 509.546 122.94 509.177 123.361C508.808 123.776 508.623 124.324 508.623 125.006V133H505.103V124.835C505.103 124.193 504.918 123.682 504.549 123.301C504.185 122.92 503.705 122.73 503.109 122.73C502.705 122.73 502.342 122.832 502.018 123.037C501.7 123.236 501.447 123.517 501.259 123.881C501.072 124.239 500.978 124.659 500.978 125.142V133H497.347ZM522.971 133.247C522.136 133.247 521.391 133.102 520.738 132.812C520.085 132.517 519.567 132.082 519.187 131.509C518.812 130.929 518.624 130.207 518.624 129.344C518.624 128.616 518.758 128.006 519.025 127.511C519.292 127.017 519.656 126.619 520.116 126.318C520.576 126.017 521.099 125.79 521.684 125.636C522.275 125.483 522.894 125.375 523.542 125.312C524.303 125.233 524.917 125.159 525.383 125.091C525.849 125.017 526.187 124.909 526.397 124.767C526.607 124.625 526.712 124.415 526.712 124.136V124.085C526.712 123.545 526.542 123.128 526.201 122.832C525.866 122.537 525.388 122.389 524.769 122.389C524.116 122.389 523.596 122.534 523.21 122.824C522.823 123.108 522.567 123.466 522.442 123.898L519.085 123.625C519.255 122.83 519.59 122.142 520.09 121.562C520.59 120.977 521.235 120.528 522.025 120.216C522.82 119.898 523.741 119.739 524.786 119.739C525.513 119.739 526.21 119.824 526.874 119.994C527.545 120.165 528.138 120.429 528.656 120.787C529.178 121.145 529.59 121.605 529.891 122.168C530.192 122.724 530.343 123.392 530.343 124.17V133H526.9V131.185H526.798C526.587 131.594 526.306 131.955 525.954 132.267C525.602 132.574 525.178 132.815 524.684 132.991C524.19 133.162 523.619 133.247 522.971 133.247ZM524.011 130.741C524.545 130.741 525.016 130.636 525.425 130.426C525.835 130.21 526.156 129.92 526.388 129.557C526.621 129.193 526.738 128.781 526.738 128.321V126.932C526.624 127.006 526.468 127.074 526.269 127.136C526.076 127.193 525.857 127.247 525.613 127.298C525.369 127.344 525.124 127.386 524.88 127.426C524.636 127.46 524.414 127.491 524.215 127.52C523.789 127.582 523.417 127.682 523.099 127.818C522.781 127.955 522.533 128.139 522.357 128.372C522.181 128.599 522.093 128.884 522.093 129.224C522.093 129.719 522.272 130.097 522.63 130.358C522.994 130.614 523.454 130.741 524.011 130.741ZM537.984 133.213C536.989 133.213 536.089 132.957 535.282 132.446C534.481 131.929 533.844 131.17 533.373 130.17C532.907 129.165 532.674 127.932 532.674 126.472C532.674 124.972 532.915 123.724 533.398 122.73C533.881 121.73 534.523 120.983 535.325 120.489C536.131 119.989 537.015 119.739 537.975 119.739C538.708 119.739 539.319 119.864 539.808 120.114C540.302 120.358 540.7 120.665 541.001 121.034C541.308 121.398 541.54 121.756 541.7 122.108H541.81V115.545H545.433V133H541.853V130.903H541.7C541.529 131.267 541.288 131.628 540.975 131.986C540.668 132.338 540.268 132.631 539.773 132.864C539.285 133.097 538.688 133.213 537.984 133.213ZM539.134 130.324C539.719 130.324 540.214 130.165 540.617 129.847C541.026 129.523 541.339 129.071 541.555 128.491C541.776 127.912 541.887 127.233 541.887 126.455C541.887 125.676 541.779 125 541.563 124.426C541.347 123.852 541.035 123.409 540.626 123.097C540.217 122.784 539.719 122.628 539.134 122.628C538.538 122.628 538.035 122.79 537.626 123.114C537.217 123.437 536.907 123.886 536.697 124.46C536.487 125.034 536.381 125.699 536.381 126.455C536.381 127.216 536.487 127.889 536.697 128.474C536.913 129.054 537.222 129.509 537.626 129.838C538.035 130.162 538.538 130.324 539.134 130.324ZM554.332 133.256C553.009 133.256 551.864 132.974 550.898 132.412C549.938 131.844 549.196 131.054 548.673 130.043C548.151 129.026 547.889 127.847 547.889 126.506C547.889 125.153 548.151 123.972 548.673 122.96C549.196 121.943 549.938 121.153 550.898 120.591C551.864 120.023 553.009 119.739 554.332 119.739C555.656 119.739 556.798 120.023 557.759 120.591C558.724 121.153 559.469 121.943 559.991 122.96C560.514 123.972 560.776 125.153 560.776 126.506C560.776 127.847 560.514 129.026 559.991 130.043C559.469 131.054 558.724 131.844 557.759 132.412C556.798 132.974 555.656 133.256 554.332 133.256ZM554.349 130.443C554.952 130.443 555.455 130.273 555.858 129.932C556.261 129.585 556.565 129.114 556.77 128.517C556.98 127.92 557.085 127.241 557.085 126.48C557.085 125.719 556.98 125.04 556.77 124.443C556.565 123.847 556.261 123.375 555.858 123.028C555.455 122.682 554.952 122.509 554.349 122.509C553.741 122.509 553.23 122.682 552.815 123.028C552.406 123.375 552.097 123.847 551.886 124.443C551.682 125.04 551.58 125.719 551.58 126.48C551.58 127.241 551.682 127.92 551.886 128.517C552.097 129.114 552.406 129.585 552.815 129.932C553.23 130.273 553.741 130.443 554.349 130.443ZM569.051 133.256C567.71 133.256 566.557 132.972 565.591 132.403C564.631 131.83 563.892 131.034 563.375 130.017C562.864 129 562.608 127.83 562.608 126.506C562.608 125.165 562.866 123.989 563.384 122.977C563.906 121.96 564.648 121.168 565.608 120.599C566.568 120.026 567.71 119.739 569.034 119.739C570.176 119.739 571.176 119.946 572.034 120.361C572.892 120.776 573.571 121.358 574.071 122.108C574.571 122.858 574.847 123.739 574.898 124.75H571.472C571.375 124.097 571.119 123.571 570.705 123.173C570.295 122.77 569.759 122.568 569.094 122.568C568.531 122.568 568.04 122.722 567.619 123.028C567.205 123.33 566.881 123.77 566.648 124.349C566.415 124.929 566.298 125.631 566.298 126.455C566.298 127.29 566.412 128 566.639 128.585C566.872 129.17 567.199 129.616 567.619 129.923C568.04 130.23 568.531 130.384 569.094 130.384C569.509 130.384 569.881 130.298 570.21 130.128C570.545 129.957 570.821 129.71 571.037 129.386C571.259 129.057 571.403 128.662 571.472 128.202H574.898C574.841 129.202 574.568 130.082 574.08 130.844C573.597 131.599 572.929 132.19 572.077 132.616C571.224 133.043 570.216 133.256 569.051 133.256ZM588.114 123.642L584.79 123.847C584.734 123.562 584.612 123.307 584.424 123.08C584.237 122.847 583.989 122.662 583.683 122.526C583.381 122.384 583.021 122.312 582.6 122.312C582.038 122.312 581.563 122.432 581.177 122.67C580.79 122.903 580.597 123.216 580.597 123.608C580.597 123.92 580.722 124.185 580.972 124.401C581.222 124.616 581.651 124.79 582.259 124.92L584.629 125.398C585.901 125.659 586.85 126.08 587.475 126.659C588.1 127.239 588.413 128 588.413 128.943C588.413 129.801 588.16 130.554 587.654 131.202C587.154 131.849 586.467 132.355 585.592 132.719C584.722 133.077 583.719 133.256 582.583 133.256C580.85 133.256 579.469 132.895 578.441 132.173C577.418 131.446 576.819 130.457 576.643 129.207L580.214 129.02C580.322 129.548 580.583 129.952 580.998 130.23C581.413 130.503 581.944 130.639 582.592 130.639C583.228 130.639 583.739 130.517 584.126 130.273C584.518 130.023 584.717 129.702 584.722 129.31C584.717 128.98 584.577 128.71 584.305 128.5C584.032 128.284 583.612 128.119 583.043 128.006L580.776 127.554C579.498 127.298 578.546 126.855 577.921 126.224C577.302 125.594 576.992 124.79 576.992 123.812C576.992 122.972 577.219 122.247 577.674 121.639C578.134 121.031 578.779 120.562 579.609 120.233C580.444 119.903 581.421 119.739 582.54 119.739C584.194 119.739 585.495 120.088 586.444 120.787C587.398 121.486 587.955 122.437 588.114 123.642ZM528.681 144.545H532.371V155.881C532.371 157.153 532.067 158.267 531.46 159.222C530.857 160.176 530.013 160.92 528.928 161.455C527.843 161.983 526.579 162.247 525.136 162.247C523.687 162.247 522.42 161.983 521.335 161.455C520.249 160.92 519.406 160.176 518.803 159.222C518.201 158.267 517.9 157.153 517.9 155.881V144.545H521.59V155.565C521.59 156.23 521.735 156.821 522.025 157.338C522.32 157.855 522.735 158.261 523.269 158.557C523.803 158.852 524.425 159 525.136 159C525.852 159 526.474 158.852 527.002 158.557C527.536 158.261 527.948 157.855 528.238 157.338C528.533 156.821 528.681 156.23 528.681 155.565V144.545ZM539.098 144.545V162H535.408V144.545H539.098Z" fill="white" fill-opacity="0.5"/>
<path d="M514.563 203L517.587 198.24L517.503 198.184C517.316 198.473 517.064 198.693 516.747 198.842C516.43 198.991 516.075 199.066 515.683 199.066C515.142 199.066 514.666 198.935 514.255 198.674C513.854 198.413 513.541 198.049 513.317 197.582C513.093 197.115 512.981 196.569 512.981 195.944C512.981 195.272 513.121 194.693 513.401 194.208C513.69 193.713 514.092 193.331 514.605 193.06C515.118 192.78 515.716 192.64 516.397 192.64C517.097 192.64 517.704 192.785 518.217 193.074C518.73 193.354 519.127 193.751 519.407 194.264C519.696 194.777 519.841 195.379 519.841 196.07C519.841 196.546 519.762 197.055 519.603 197.596C519.444 198.128 519.216 198.627 518.917 199.094L516.509 203H514.563ZM516.411 197.736C516.924 197.736 517.34 197.573 517.657 197.246C517.974 196.91 518.133 196.467 518.133 195.916C518.133 195.384 517.974 194.955 517.657 194.628C517.34 194.292 516.924 194.124 516.411 194.124C515.898 194.124 515.482 194.292 515.165 194.628C514.848 194.955 514.689 195.384 514.689 195.916C514.689 196.467 514.848 196.91 515.165 197.246C515.482 197.573 515.898 197.736 516.411 197.736ZM524.805 203.14C524.404 203.14 524.082 203.023 523.839 202.79C523.606 202.557 523.489 202.239 523.489 201.838C523.489 201.437 523.606 201.119 523.839 200.886C524.082 200.643 524.404 200.522 524.805 200.522C525.207 200.522 525.524 200.643 525.757 200.886C526 201.119 526.121 201.437 526.121 201.838C526.121 202.239 526 202.557 525.757 202.79C525.524 203.023 525.207 203.14 524.805 203.14ZM531.352 203L534.376 198.24L534.292 198.184C534.105 198.473 533.853 198.693 533.536 198.842C533.219 198.991 532.864 199.066 532.472 199.066C531.931 199.066 531.455 198.935 531.044 198.674C530.643 198.413 530.33 198.049 530.106 197.582C529.882 197.115 529.77 196.569 529.77 195.944C529.77 195.272 529.91 194.693 530.19 194.208C530.479 193.713 530.881 193.331 531.394 193.06C531.907 192.78 532.505 192.64 533.186 192.64C533.886 192.64 534.493 192.785 535.006 193.074C535.519 193.354 535.916 193.751 536.196 194.264C536.485 194.777 536.63 195.379 536.63 196.07C536.63 196.546 536.551 197.055 536.392 197.596C536.233 198.128 536.005 198.627 535.706 199.094L533.298 203H531.352ZM533.2 197.736C533.713 197.736 534.129 197.573 534.446 197.246C534.763 196.91 534.922 196.467 534.922 195.916C534.922 195.384 534.763 194.955 534.446 194.628C534.129 194.292 533.713 194.124 533.2 194.124C532.687 194.124 532.271 194.292 531.954 194.628C531.637 194.955 531.478 195.384 531.478 195.916C531.478 196.467 531.637 196.91 531.954 197.246C532.271 197.573 532.687 197.736 533.2 197.736ZM539.747 203L542.771 198.24L542.687 198.184C542.5 198.473 542.248 198.693 541.931 198.842C541.613 198.991 541.259 199.066 540.867 199.066C540.325 199.066 539.849 198.935 539.439 198.674C539.037 198.413 538.725 198.049 538.501 197.582C538.277 197.115 538.165 196.569 538.165 195.944C538.165 195.272 538.305 194.693 538.585 194.208C538.874 193.713 539.275 193.331 539.789 193.06C540.302 192.78 540.899 192.64 541.581 192.64C542.281 192.64 542.887 192.785 543.401 193.074C543.914 193.354 544.311 193.751 544.591 194.264C544.88 194.777 545.025 195.379 545.025 196.07C545.025 196.546 544.945 197.055 544.787 197.596C544.628 198.128 544.399 198.627 544.101 199.094L541.693 203H539.747ZM541.595 197.736C542.108 197.736 542.523 197.573 542.841 197.246C543.158 196.91 543.317 196.467 543.317 195.916C543.317 195.384 543.158 194.955 542.841 194.628C542.523 194.292 542.108 194.124 541.595 194.124C541.081 194.124 540.666 194.292 540.349 194.628C540.031 194.955 539.873 195.384 539.873 195.916C539.873 196.467 540.031 196.91 540.349 197.246C540.666 197.573 541.081 197.736 541.595 197.736Z" fill="#CBCBCB" fill-opacity="0.38"/>
<path d="M506 345L506 234L504 234L504 345L506 345Z" fill="url(#paint13_linear_256_33)"/>
<path d="M522 345L522 234L520 234L520 345L522 345Z" fill="url(#paint14_linear_256_33)"/>
<path d="M538 345L538 234L536 234L536 345L538 345Z" fill="url(#paint15_linear_256_33)"/>
<path d="M554 345L554 234L552 234L552 345L554 345Z" fill="url(#paint16_linear_256_33)"/>
<rect x="518" y="234" width="11" height="6" transform="rotate(-90 518 234)" fill="#88824B"/>
<rect x="534" y="234" width="11" height="6" transform="rotate(-90 534 234)" fill="#88824B"/>
<rect x="550" y="234" width="11" height="6" transform="rotate(-90 550 234)" fill="#88824B"/>
<rect x="502" y="234" width="11" height="6" transform="rotate(-90 502 234)" fill="#88824B"/>
<path d="M552 -68L552 43L554 43L554 -68L552 -68Z" fill="url(#paint17_linear_256_33)"/>
<path d="M536 -68L536 43L538 43L538 -68L536 -68Z" fill="url(#paint18_linear_256_33)"/>
<path d="M520 -68L520 43L522 43L522 -68L520 -68Z" fill="url(#paint19_linear_256_33)"/>
<path d="M504 -68L504 43L506 43L506 -68L504 -68Z" fill="url(#paint20_linear_256_33)"/>
<rect x="502" y="54" width="11" height="6" transform="rotate(-90 502 54)" fill="#88824B"/>
<rect x="518" y="54" width="11" height="6" transform="rotate(-90 518 54)" fill="#88824B"/>
<rect x="534" y="54" width="11" height="6" transform="rotate(-90 534 54)" fill="#88824B"/>
<rect x="550" y="54" width="11" height="6" transform="rotate(-90 550 54)" fill="#88824B"/>
<rect x="37" y="45" width="201" height="120" fill="#1C2030"/>
<rect x="37" y="46" width="10" height="119" fill="url(#paint21_linear_256_33)"/>
<rect x="58" y="46" width="10" height="119" fill="url(#paint22_linear_256_33)"/>
<rect x="79" y="46" width="10" height="119" fill="url(#paint23_linear_256_33)"/>
<rect x="100" y="46" width="10" height="119" fill="url(#paint24_linear_256_33)"/>
<rect x="121" y="46" width="10" height="119" fill="url(#paint25_linear_256_33)"/>
<rect x="142" y="46" width="10" height="119" fill="url(#paint26_linear_256_33)"/>
<rect x="163" y="46" width="10" height="119" fill="url(#paint27_linear_256_33)"/>
<rect x="184" y="46" width="10" height="119" fill="url(#paint28_linear_256_33)"/>
<circle cx="175.5" cy="215.5" r="21.5" fill="#6C7081" stroke="#4D5161" stroke-width="4"/>
<path d="M175.964 222.2C174.777 222.2 173.804 221.893 173.044 221.28C172.284 220.667 171.837 219.84 171.704 218.8H173.504C173.571 219.373 173.817 219.82 174.244 220.14C174.671 220.447 175.251 220.6 175.984 220.6C176.824 220.6 177.451 220.373 177.864 219.92C178.291 219.467 178.504 218.827 178.504 218V216.58C178.504 215.753 178.291 215.113 177.864 214.66C177.451 214.207 176.831 213.98 176.004 213.98C175.484 213.98 175.031 214.12 174.644 214.4C174.257 214.667 173.977 215.027 173.804 215.48H172.004L172.104 207.4H179.784V209.04H173.844L173.784 213.9H174.344L173.784 214.42C173.784 213.793 174.031 213.3 174.524 212.94C175.031 212.58 175.704 212.4 176.544 212.4C177.731 212.387 178.651 212.753 179.304 213.5C179.971 214.233 180.304 215.26 180.304 216.58V218C180.304 219.293 179.924 220.32 179.164 221.08C178.404 221.827 177.337 222.2 175.964 222.2Z" fill="#B5B8BE"/>
</g>
<defs>
<filter id="filter0_d_256_33" x="341.5" y="183.5" width="25" height="25" filterUnits="userSpaceOnUse" color-interpolation-filters="sRGB">
<feFlood flood-opacity="0" result="BackgroundImageFix"/>
<feColorMatrix in="SourceAlpha" type="matrix" values="0 0 0 0 0 0 0 0 0 0 0 0 0 0 0 0 0 0 127 0" result="hardAlpha"/>
<feOffset/>
<feGaussianBlur stdDeviation="4.25"/>
<feComposite in2="hardAlpha" operator="out"/>
<feColorMatrix type="matrix" values="0 0 0 0 1 0 0 0 0 0.720133 0 0 0 0 1 0 0 0 1 0"/>
<feBlend mode="normal" in2="BackgroundImageFix" result="effect1_dropShadow_256_33"/>
<feBlend mode="normal" in="SourceGraphic" in2="effect1_dropShadow_256_33" result="shape"/>
</filter>
<filter id="filter1_d_256_33" x="755.5" y="245.5" width="27" height="27" filterUnits="userSpaceOnUse" color-interpolation-filters="sRGB">
<feFlood flood-opacity="0" result="BackgroundImageFix"/>
<feColorMatrix in="SourceAlpha" type="matrix" values="0 0 0 0 0 0 0 0 0 0 0 0 0 0 0 0 0 0 127 0" result="hardAlpha"/>
<feOffset/>
<feGaussianBlur stdDeviation="4.25"/>
<feComposite in2="hardAlpha" operator="out"/>
<feColorMatrix type="matrix" values="0 0 0 0 1 0 0 0 0 0.465467 0 0 0 0 0.296667 0 0 0 1 0"/>
<feBlend mode="normal" in2="BackgroundImageFix" result="effect1_dropShadow_256_33"/>
<feBlend mode="normal" in="SourceGraphic" in2="effect1_dropShadow_256_33" result="shape"/>
</filter>
<filter id="filter2_d_256_33" x="820.5" y="77.5" width="25" height="25" filterUnits="userSpaceOnUse" color-interpolation-filters="sRGB">
<feFlood flood-opacity="0" result="BackgroundImageFix"/>
<feColorMatrix in="SourceAlpha" type="matrix" values="0 0 0 0 0 0 0 0 0 0 0 0 0 0 0 0 0 0 127 0" result="hardAlpha"/>
<feOffset/>
<feGaussianBlur stdDeviation="4.25"/>
<feComposite in2="hardAlpha" operator="out"/>
<feColorMatrix type="matrix" values="0 0 0 0 0.54902 0 0 0 0 1 0 0 0 0 0.647059 0 0 0 1 0"/>
<feBlend mode="normal" in2="BackgroundImageFix" result="effect1_dropShadow_256_33"/>
<feBlend mode="normal" in="SourceGraphic" in2="effect1_dropShadow_256_33" result="shape"/>
</filter>
<linearGradient id="paint0_linear_256_33" x1="246" y1="181" x2="325.958" y2="275.537" gradientUnits="userSpaceOnUse">
<stop stop-color="#32323C"/>
<stop offset="1" stop-color="#1E1E26"/>
</linearGradient>
<linearGradient id="paint1_linear_256_33" x1="374" y1="203.25" x2="606" y2="203.25" gradientUnits="userSpaceOnUse">
<stop offset="0.4" stop-color="#32323C"/>
<stop offset="1" stop-opacity="0"/>
</linearGradient>
<linearGradient id="paint2_linear_256_33" x1="374" y1="223.25" x2="606" y2="223.25" gradientUnits="userSpaceOnUse">
<stop offset="0.4" stop-color="#32323C"/>
<stop offset="1" stop-opacity="0"/>
</linearGradient>
<linearGradient id="paint3_linear_256_33" x1="374" y1="243.25" x2="606" y2="243.25" gradientUnits="userSpaceOnUse">
<stop offset="0.4" stop-color="#32323C"/>
<stop offset="1" stop-opacity="0"/>
</linearGradient>
<linearGradient id="paint4_linear_256_33" x1="661.952" y1="242" x2="733.338" y2="361.602" gradientUnits="userSpaceOnUse">
<stop stop-color="#31313B"/>
<stop offset="1" stop-color="#1C1C23"/>
</linearGradient>
<linearGradient id="paint5_linear_256_33" x1="717.252" y1="66" x2="803.748" y2="201" gradientUnits="userSpaceOnUse">
<stop stop-color="#323241"/>
<stop offset="1" stop-color="#1C1C2C"/>
</linearGradient>
<linearGradient id="paint6_linear_256_33" x1="871" y1="106" x2="1229" y2="106" gradientUnits="userSpaceOnUse">
<stop offset="0.4" stop-color="#32323C"/>
<stop offset="1" stop-opacity="0"/>
</linearGradient>
<linearGradient id="paint7_linear_256_33" x1="871" y1="138" x2="1229" y2="138" gradientUnits="userSpaceOnUse">
<stop offset="0.4" stop-color="#32323C"/>
<stop offset="1" stop-opacity="0"/>
</linearGradient>
<linearGradient id="paint8_linear_256_33" x1="244" y1="505" x2="170" y2="505" gradientUnits="userSpaceOnUse">
<stop stop-color="#646478"/>
<stop offset="1" stop-color="#262641"/>
</linearGradient>
<linearGradient id="paint9_linear_256_33" x1="348" y1="505" x2="274" y2="505" gradientUnits="userSpaceOnUse">
<stop stop-color="#646478"/>
<stop offset="1" stop-color="#262641"/>
</linearGradient>
<linearGradient id="paint10_linear_256_33" x1="453" y1="505" x2="379" y2="505" gradientUnits="userSpaceOnUse">
<stop stop-color="#646478"/>
<stop offset="1" stop-color="#262641"/>
</linearGradient>
<linearGradient id="paint11_linear_256_33" x1="557" y1="505" x2="483" y2="505" gradientUnits="userSpaceOnUse">
<stop stop-color="#646478"/>
<stop offset="1" stop-color="#262641"/>
</linearGradient>
<linearGradient id="paint12_linear_256_33" x1="477.389" y1="51" x2="591.73" y2="215.581" gradientUnits="userSpaceOnUse">
<stop stop-color="#828892"/>
<stop offset="1" stop-color="#383C4B"/>
</linearGradient>
<linearGradient id="paint13_linear_256_33" x1="506" y1="234" x2="506" y2="345" gradientUnits="userSpaceOnUse">
<stop offset="0.4" stop-color="#32323C"/>
<stop offset="1" stop-opacity="0"/>
</linearGradient>
<linearGradient id="paint14_linear_256_33" x1="522" y1="234" x2="522" y2="345" gradientUnits="userSpaceOnUse">
<stop offset="0.4" stop-color="#32323C"/>
<stop offset="1" stop-opacity="0"/>
</linearGradient>
<linearGradient id="paint15_linear_256_33" x1="538" y1="234" x2="538" y2="345" gradientUnits="userSpaceOnUse">
<stop offset="0.4" stop-color="#32323C"/>
<stop offset="1" stop-opacity="0"/>
</linearGradient>
<linearGradient id="paint16_linear_256_33" x1="554" y1="234" x2="554" y2="345" gradientUnits="userSpaceOnUse">
<stop offset="0.4" stop-color="#32323C"/>
<stop offset="1" stop-opacity="0"/>
</linearGradient>
<linearGradient id="paint17_linear_256_33" x1="552" y1="43" x2="552" y2="-68" gradientUnits="userSpaceOnUse">
<stop offset="0.4" stop-color="#32323C"/>
<stop offset="1" stop-opacity="0"/>
</linearGradient>
<linearGradient id="paint18_linear_256_33" x1="536" y1="43" x2="536" y2="-68" gradientUnits="userSpaceOnUse">
<stop offset="0.4" stop-color="#32323C"/>
<stop offset="1" stop-opacity="0"/>
</linearGradient>
<linearGradient id="paint19_linear_256_33" x1="520" y1="43" x2="520" y2="-68" gradientUnits="userSpaceOnUse">
<stop offset="0.4" stop-color="#32323C"/>
<stop offset="1" stop-opacity="0"/>
</linearGradient>
<linearGradient id="paint20_linear_256_33" x1="504" y1="43" x2="504" y2="-68" gradientUnits="userSpaceOnUse">
<stop offset="0.4" stop-color="#32323C"/>
<stop offset="1" stop-opacity="0"/>
</linearGradient>
<linearGradient id="paint21_linear_256_33" x1="46.5594" y1="46" x2="37.4406" y2="165" gradientUnits="userSpaceOnUse">
<stop stop-color="#1C2030"/>
<stop offset="1" stop-color="#6F7385"/>
</linearGradient>
<linearGradient id="paint22_linear_256_33" x1="67.5594" y1="46" x2="58.4406" y2="165" gradientUnits="userSpaceOnUse">
<stop stop-color="#1C2030"/>
<stop offset="1" stop-color="#6F7385"/>
</linearGradient>
<linearGradient id="paint23_linear_256_33" x1="88.5594" y1="46" x2="79.4406" y2="165" gradientUnits="userSpaceOnUse">
<stop stop-color="#1C2030"/>
<stop offset="1" stop-color="#6F7385"/>
</linearGradient>
<linearGradient id="paint24_linear_256_33" x1="109.559" y1="46" x2="100.441" y2="165" gradientUnits="userSpaceOnUse">
<stop stop-color="#1C2030"/>
<stop offset="1" stop-color="#6F7385"/>
</linearGradient>
<linearGradient id="paint25_linear_256_33" x1="130.559" y1="46" x2="121.441" y2="165" gradientUnits="userSpaceOnUse">
<stop stop-color="#1C2030"/>
<stop offset="1" stop-color="#6F7385"/>
</linearGradient>
<linearGradient id="paint26_linear_256_33" x1="151.559" y1="46" x2="142.441" y2="165" gradientUnits="userSpaceOnUse">
<stop stop-color="#1C2030"/>
<stop offset="1" stop-color="#6F7385"/>
</linearGradient>
<linearGradient id="paint27_linear_256_33" x1="172.559" y1="46" x2="163.441" y2="165" gradientUnits="userSpaceOnUse">
<stop stop-color="#1C2030"/>
<stop offset="1" stop-color="#6F7385"/>
</linearGradient>
<linearGradient id="paint28_linear_256_33" x1="193.559" y1="46" x2="184.441" y2="165" gradientUnits="userSpaceOnUse">
<stop stop-color="#1C2030"/>
<stop offset="1" stop-color="#6F7385"/>
</linearGradient>
<clipPath id="clip0_256_33">
<rect width="1231" height="536" fill="white"/>
</clipPath>
<clipPath id="clip1_256_33">
<rect x="616" y="242" width="171" height="115" rx="8" fill="white"/>
</clipPath>
</defs>
</svg>
